<?xml version="1.0" standalone="no"?>
<!DOCTYPE svg PUBLIC "-//W3C//DTD SVG 20010904//EN"
 "http://www.w3.org/TR/2001/REC-SVG-20010904/DTD/svg10.dtd">
<svg version="1.0" xmlns="http://www.w3.org/2000/svg"
 width="819.000000pt" height="819.000000pt" viewBox="0 0 819.000000 819.000000"
 preserveAspectRatio="xMidYMid meet">
<metadata>
Created by potrace 1.14, written by Peter Selinger 2001-2017
</metadata>
<g transform="translate(0.000000,819.000000) scale(0.100000,-0.100000)"
fill="#000000" stroke="none">
<path d="M6344 6716 c-3 -8 -4 -25 -2 -38 2 -19 9 -23 38 -23 33 0 35 2 35 35
0 32 -3 35 -33 38 -21 2 -34 -2 -38 -12z"/>
<path d="M6660 6690 l0 -40 100 0 100 0 0 40 0 40 -100 0 -100 0 0 -40z"/>
<path d="M6940 6710 c0 -13 7 -20 20 -20 13 0 20 -7 20 -20 0 -17 -7 -20 -43
-20 l-43 0 4 -40 4 -40 -41 0 c-34 0 -41 -3 -41 -20 0 -18 -7 -20 -80 -20
l-80 0 0 40 0 40 -79 0 c-68 0 -80 3 -83 18 -3 15 -17 17 -115 18 -106 1 -112
0 -116 -20 -4 -20 -4 -20 -6 2 -1 21 -5 22 -81 22 l-80 0 0 -34 c0 -28 4 -35
23 -39 19 -4 18 -4 -5 -6 -25 -1 -28 2 -28 33 0 31 -3 34 -35 38 -35 4 -35 4
-35 -34 0 -31 4 -38 20 -38 17 0 20 -7 20 -45 l0 -45 -40 0 -40 0 0 -55 c0
-54 0 -55 -30 -55 -19 0 -30 -5 -30 -14 0 -8 -6 -17 -12 -19 -7 -3 -3 -6 10
-6 15 -1 22 -7 22 -22 0 -18 -5 -20 -27 -16 -26 5 -26 4 -8 -8 156 -107 285
-244 376 -400 119 -205 174 -409 215 -800 34 -338 49 -705 47 -1175 -4 -786
-50 -1209 -163 -1490 -104 -262 -294 -465 -575 -615 -211 -113 -503 -185 -880
-215 -226 -19 -850 -31 -1225 -25 -674 11 -1067 76 -1376 226 -45 21 -86 39
-92 39 -6 0 -15 6 -19 14 -4 7 -19 17 -33 21 -22 6 -21 4 10 -24 19 -16 43
-33 52 -36 23 -8 23 -21 1 -35 -17 -11 -17 -11 0 -6 24 8 22 -26 -3 -49 -11
-10 -20 -27 -20 -37 0 -11 -9 -22 -20 -25 -16 -4 -20 -14 -20 -44 0 -32 -3
-39 -20 -39 -18 0 -20 -7 -20 -55 0 -48 -2 -55 -20 -55 -11 0 -20 -4 -20 -10
0 -5 9 -10 20 -10 18 0 20 -7 20 -55 0 -41 4 -55 14 -55 8 0 17 10 19 23 2 12
5 3 6 -20 1 -36 4 -43 21 -43 17 0 20 -7 20 -41 0 -36 2 -41 20 -36 11 3 18 1
14 -4 -3 -5 -12 -9 -20 -9 -11 0 -14 -16 -14 -75 0 -68 2 -75 20 -75 17 0 20
7 20 40 l0 40 80 0 c73 0 80 -2 80 -20 0 -17 7 -20 40 -20 l40 0 0 -140 0
-140 43 0 42 0 -3 80 c-3 75 -2 80 17 80 18 0 21 -6 21 -40 0 -33 3 -40 20
-40 17 0 20 -7 20 -40 l0 -40 41 0 c41 0 41 0 39 -37 -1 -21 -2 -57 -1 -80 l1
-43 40 0 40 0 0 -40 c0 -33 3 -40 20 -40 17 0 20 -7 20 -40 0 -35 3 -40 23
-40 21 0 22 3 19 79 l-3 80 -37 3 -37 3 -3 58 c-3 52 -1 57 18 57 13 0 20 -7
20 -20 0 -18 7 -20 60 -20 53 0 60 -2 60 -20 0 -17 7 -20 40 -20 l40 0 0 -40
0 -40 40 0 c33 0 40 -3 40 -20 0 -17 7 -20 40 -20 33 0 40 -3 40 -20 0 -17 7
-20 40 -20 34 0 40 -3 40 -20 0 -20 -5 -21 -117 -18 l-118 3 -3 38 c-3 36 -4
37 -43 37 -38 0 -39 -1 -39 -36 0 -27 -5 -37 -20 -41 -16 -4 -20 -14 -20 -44
l0 -39 140 0 140 0 0 -40 0 -40 60 0 c53 0 60 -2 60 -20 0 -19 7 -20 100 -20
93 0 100 -1 100 -20 0 -17 7 -20 43 -20 42 0 42 0 42 37 0 37 1 38 35 38 34 0
35 -1 35 -38 0 -37 0 -37 43 -37 35 0 42 -3 42 -20 0 -19 7 -20 120 -20 113 0
120 1 120 20 0 17 -7 20 -40 20 -33 0 -40 3 -40 20 0 18 7 20 80 20 73 0 80
-2 80 -20 0 -17 7 -20 41 -20 l41 0 -4 -40 -4 -40 46 0 46 0 -4 40 -4 40 42 0
42 0 -2 -37 c-4 -82 -4 -83 40 -83 33 0 40 -3 40 -20 0 -20 7 -20 483 -20
l482 0 -3 70 -4 70 181 0 c114 0 181 -4 181 -10 0 -6 40 -10 100 -10 l101 0
-3 -57 -3 -58 -35 0 c-33 0 -35 2 -38 38 l-3 37 -79 0 -79 0 -3 -37 c-3 -36
-5 -38 -38 -38 -33 0 -35 2 -38 38 -3 35 -5 37 -39 37 -26 0 -36 5 -40 20 -8
29 -83 29 -83 1 0 -16 8 -20 38 -23 35 -3 37 -5 37 -38 0 -33 -2 -35 -37 -38
-30 -3 -38 -7 -38 -23 0 -15 7 -19 39 -19 31 0 40 4 44 21 4 16 12 20 39 17
30 -3 33 -6 33 -38 0 -34 -1 -35 -37 -36 -21 0 -41 -3 -45 -7 -3 -4 33 -7 80
-7 86 0 87 0 87 25 l0 25 239 0 c230 0 239 1 244 20 7 28 67 28 74 0 5 -19 14
-20 204 -20 l199 0 1 23 c4 98 1 92 39 92 34 0 35 -1 35 -38 l0 -37 183 0 182
0 0 40 0 40 120 0 c113 0 120 1 120 20 0 18 7 20 60 20 53 0 60 2 60 20 0 19
7 20 100 20 l100 0 0 40 0 40 40 0 40 0 0 40 0 40 180 0 180 0 0 80 0 80 45 0
45 0 0 2780 0 2780 -85 0 -85 0 0 40 c0 33 -3 40 -20 40 -13 0 -20 7 -20 20 0
13 -7 20 -20 20 -17 0 -20 7 -20 40 l0 40 -80 0 -80 0 0 40 0 40 -40 0 -40 0
0 40 0 40 -120 0 -120 0 0 -100 c0 -93 -1 -100 -20 -100 -17 0 -20 7 -20 40
l0 40 -60 0 -60 0 0 40 0 40 -80 0 c-73 0 -80 2 -80 20 0 17 7 20 39 20 38 0
39 1 43 40 l4 40 -43 0 -43 0 0 40 0 40 -40 0 -40 0 0 40 0 40 -60 0 c-53 0
-60 -2 -60 -20z m-447 -137 c-7 -2 -19 -2 -25 0 -7 3 -2 5 12 5 14 0 19 -2 13
-5z m645 -55 c3 -27 1 -28 -37 -28 -36 0 -41 3 -41 23 0 32 9 38 45 35 24 -2
31 -8 33 -30z m-1078 -88 c0 -13 -7 -20 -20 -20 -13 0 -20 7 -20 20 0 13 7 20
20 20 13 0 20 -7 20 -20z m1558 -122 l3 -98 -41 0 -40 0 0 93 c0 52 3 97 7
101 4 4 21 6 38 4 l30 -3 3 -97z m160 -100 l3 -38 -40 0 c-40 0 -41 1 -41 33
0 42 7 49 45 45 27 -3 30 -7 33 -40z m160 -240 l3 -118 -61 0 -60 0 0 120 0
121 58 -3 57 -3 3 -117z m-5561 -4764 c-3 -3 -12 -4 -19 -1 -8 3 -5 6 6 6 11
1 17 -2 13 -5z m1043 -734 c0 -19 7 -20 100 -20 94 0 100 -1 100 -20 0 -20 -5
-20 -157 -18 l-158 3 -3 38 -3 37 60 0 c54 0 61 -2 61 -20z m400 -100 l0 -40
60 0 c53 0 60 -2 60 -20 0 -17 -7 -20 -40 -20 -34 0 -40 -3 -40 -21 0 -17 -5
-20 -37 -17 -36 3 -38 5 -41 40 -3 35 -5 37 -40 40 -35 3 -37 5 -40 41 l-3 37
60 0 61 0 0 -40z m3238 -47 l-3 -68 -77 -3 -77 -3 -3 -37 c-3 -35 -5 -37 -38
-37 l-35 0 -3 78 -3 77 81 0 80 0 0 30 c0 28 2 30 40 30 l41 0 -3 -67z m237
-33 c0 -33 -2 -35 -35 -35 -29 0 -36 4 -38 23 -6 40 5 54 40 50 30 -3 33 -6
33 -38z m-957 -77 l-3 -38 -75 0 -75 0 -3 38 -3 37 81 0 81 0 -3 -37z m240 0
c-3 -36 -5 -38 -38 -38 -33 0 -35 2 -38 38 l-3 37 41 0 41 0 -3 -37z m-1280
-10 c-3 -25 -7 -28 -38 -28 -31 0 -35 3 -38 28 -3 26 -1 27 38 27 39 0 41 -1
38 -27z m-800 -10 c-2 -13 -13 -18 -38 -18 -25 0 -36 5 -38 18 -3 14 4 17 38
17 34 0 41 -3 38 -17z m160 0 c-2 -13 -13 -18 -38 -18 -25 0 -36 5 -38 18 -3
14 4 17 38 17 34 0 41 -3 38 -17z m160 0 c-2 -13 -13 -18 -38 -18 -25 0 -36 5
-38 18 -3 14 4 17 38 17 34 0 41 -3 38 -17z m1280 0 c-2 -13 -13 -18 -38 -18
-25 0 -36 5 -38 18 -3 14 4 17 38 17 34 0 41 -3 38 -17z m77 -63 c0 -33 -2
-35 -35 -35 -29 0 -36 4 -38 23 -6 40 5 54 40 50 30 -3 33 -6 33 -38z"/>
<path d="M6040 6670 c0 -16 7 -20 30 -20 23 0 30 4 30 20 0 16 -7 20 -30 20
-23 0 -30 -4 -30 -20z"/>
<path d="M6110 6675 c0 -10 10 -15 30 -15 20 0 30 5 30 15 0 10 -10 15 -30 15
-20 0 -30 -5 -30 -15z"/>
<path d="M3855 5305 c-16 -9 -97 -82 -180 -163 -166 -163 -245 -237 -415 -392
-63 -58 -144 -132 -180 -166 -36 -33 -87 -81 -115 -105 -27 -24 -77 -69 -110
-100 -33 -31 -119 -109 -191 -173 -76 -68 -137 -130 -147 -151 -9 -20 -17 -59
-17 -88 0 -70 37 -126 153 -236 192 -180 364 -351 489 -486 158 -171 166 -177
223 -177 56 0 94 23 167 100 65 67 279 270 458 432 69 62 154 141 191 174 36
34 123 113 195 176 71 63 159 144 196 179 l68 64 177 -169 c327 -312 330 -314
382 -314 45 1 70 15 127 70 50 48 59 72 52 134 -6 54 -20 72 -126 166 -46 41
-332 323 -636 625 -303 303 -570 563 -594 579 -52 36 -123 45 -167 21z m263
-576 c266 -257 252 -241 252 -291 -1 -52 -1 -52 -120 -158 -52 -46 -115 -103
-140 -125 -119 -109 -279 -254 -415 -375 -181 -161 -158 -140 -243 -223 -39
-38 -77 -67 -85 -65 -8 1 -119 105 -245 230 -189 185 -228 229 -219 240 17 21
472 451 607 574 36 32 94 86 130 120 146 136 272 244 286 244 9 0 95 -77 192
-171z"/>
<path d="M2120 1900 c0 -13 18 -22 24 -11 3 5 -1 11 -9 15 -8 3 -15 1 -15 -4z"/>
<path d="M2230 1740 c0 -5 5 -10 10 -10 6 0 10 5 10 10 0 6 -4 10 -10 10 -5 0
-10 -4 -10 -10z"/>
<path d="M4038 173 c12 -2 32 -2 45 0 12 2 2 4 -23 4 -25 0 -35 -2 -22 -4z"/>
<path d="M8122 25 c-11 -24 -10 -25 18 -25 28 0 29 1 18 25 -6 14 -14 25 -18
25 -4 0 -12 -11 -18 -25z"/>
<path d="M5433 3 c9 -2 23 -2 30 0 6 3 -1 5 -18 5 -16 0 -22 -2 -12 -5z"/>
</g>
</svg>
